<svg width="30" height="30" viewBox="0 0 30 30" fill="none" xmlns="http://www.w3.org/2000/svg">
<path d="M30 14.9999C30 6.71479 23.2852 0 15 0C6.71484 0 0 6.71479 0 14.9999C0 23.285 6.71484 29.9998 15 29.9998C15.0879 29.9998 15.1758 29.9998 15.2637 29.9939V18.3221H12.041V14.5663H15.2637V11.8007C15.2637 8.59563 17.2207 6.84955 20.0801 6.84955C21.4512 6.84955 22.6289 6.94916 22.9688 6.99604V10.3476H21C19.4473 10.3476 19.1426 11.0858 19.1426 12.1698V14.5604H22.8633L22.377 18.3163H19.1426V29.4197C25.4121 27.6209 30 21.8494 30 14.9999V14.9999Z" fill="#C5AC2D"/>
</svg>
