<svg width="30" height="30" viewBox="0 0 30 30" fill="none" xmlns="http://www.w3.org/2000/svg">
<path d="M17.8712 15C17.8712 16.5857 16.5857 17.8711 15 17.8711C13.4143 17.8711 12.1289 16.5857 12.1289 15C12.1289 13.4143 13.4143 12.1289 15 12.1289C16.5857 12.1289 17.8712 13.4143 17.8712 15Z" fill="#C5AC2D"/>
<path d="M21.7145 9.92048C21.5764 9.54647 21.3563 9.20794 21.0702 8.93006C20.7923 8.64395 20.454 8.42376 20.0798 8.28574C19.7763 8.16786 19.3203 8.02755 18.4806 7.98932C17.5721 7.94789 17.2998 7.93896 15 7.93896C12.6999 7.93896 12.4276 7.94766 11.5193 7.98909C10.6796 8.02755 10.2234 8.16786 9.92014 8.28574C9.54592 8.42376 9.2074 8.64395 8.92977 8.93006C8.64366 9.20794 8.42348 9.54624 8.28523 9.92048C8.16736 10.224 8.02705 10.6802 7.98883 11.52C7.9474 12.4282 7.93848 12.7006 7.93848 15.0007C7.93848 17.3006 7.9474 17.573 7.98883 18.4815C8.02705 19.3213 8.16736 19.7772 8.28523 20.0807C8.42348 20.455 8.64343 20.7933 8.92954 21.0712C9.2074 21.3573 9.54569 21.5775 9.91991 21.7155C10.2234 21.8336 10.6796 21.9739 11.5193 22.0121C12.4276 22.0536 12.6997 22.0623 14.9997 22.0623C17.3 22.0623 17.5724 22.0536 18.4804 22.0121C19.3201 21.9739 19.7763 21.8336 20.0798 21.7155C20.831 21.4257 21.4247 20.832 21.7145 20.0807C21.8323 19.7772 21.9726 19.3213 22.0111 18.4815C22.0525 17.573 22.0612 17.3006 22.0612 15.0007C22.0612 12.7006 22.0525 12.4282 22.0111 11.52C21.9729 10.6802 21.8326 10.224 21.7145 9.92048V9.92048ZM15 19.4236C12.5571 19.4236 10.5768 17.4435 10.5768 15.0005C10.5768 12.5575 12.5571 10.5774 15 10.5774C17.4426 10.5774 19.4229 12.5575 19.4229 15.0005C19.4229 17.4435 17.4426 19.4236 15 19.4236ZM19.5978 11.4362C19.0269 11.4362 18.5641 10.9734 18.5641 10.4025C18.5641 9.83167 19.0269 9.36885 19.5978 9.36885C20.1686 9.36885 20.6314 9.83167 20.6314 10.4025C20.6312 10.9734 20.1686 11.4362 19.5978 11.4362Z" fill="#C5AC2D"/>
<path d="M15.0001 0C6.71704 0 0 6.71694 0 14.9999C0 23.2828 6.71704 29.9998 15.0001 29.9998C23.2831 29.9998 30.0002 23.2828 30.0002 14.9999C30.0002 6.71694 23.2831 0 15.0001 0ZM23.5615 18.551C23.5198 19.4678 23.374 20.0938 23.1612 20.6418C22.7137 21.7988 21.7991 22.7134 20.6421 23.1608C20.0943 23.3737 19.4681 23.5192 18.5514 23.5611C17.6329 23.603 17.3395 23.6131 15.0003 23.6131C12.6609 23.6131 12.3677 23.603 11.449 23.5611C10.5323 23.5192 9.90607 23.3737 9.35835 23.1608C8.78339 22.9445 8.26291 22.6056 7.83261 22.1673C7.39453 21.7372 7.05555 21.2165 6.83926 20.6418C6.6264 20.0941 6.4806 19.4678 6.43894 18.5512C6.3966 17.6325 6.38676 17.339 6.38676 14.9999C6.38676 12.6607 6.3966 12.3673 6.43871 11.4488C6.48037 10.5319 6.62594 9.90593 6.8388 9.35799C7.0551 8.78327 7.3943 8.26257 7.83261 7.8325C8.26268 7.3942 8.78339 7.05523 9.35812 6.83893C9.90607 6.62608 10.5321 6.48051 11.449 6.43862C12.3675 6.39674 12.6609 6.38667 15.0001 6.38667C17.3393 6.38667 17.6327 6.39674 18.5512 6.43885C19.4681 6.48051 20.0941 6.62608 20.6421 6.8387C21.2168 7.055 21.7375 7.3942 22.1678 7.8325C22.6059 8.2628 22.9451 8.78327 23.1612 9.35799C23.3742 9.90593 23.5198 10.5319 23.5617 11.4488C23.6036 12.3673 23.6134 12.6607 23.6134 14.9999C23.6134 17.339 23.6036 17.6325 23.5615 18.551V18.551Z" fill="#C5AC2D"/>
</svg>
