<svg width="30" height="30" viewBox="0 0 30 30" fill="none" xmlns="http://www.w3.org/2000/svg">
<path d="M13.1316 17.8108L18.0108 15.0006L13.1316 12.1904V17.8108Z" fill="#C5AC2D"/>
<path d="M15 0C6.71698 0 0 6.71694 0 14.9999C0 23.2828 6.71698 29.9998 15 29.9998C23.283 29.9998 29.9999 23.2828 29.9999 14.9999C29.9999 6.71694 23.283 0 15 0ZM24.3727 15.0152C24.3727 15.0152 24.3727 18.0573 23.9868 19.5241C23.7705 20.3271 23.1374 20.9601 22.3345 21.1762C20.8676 21.5623 15 21.5623 15 21.5623C15 21.5623 9.1477 21.5623 7.66547 21.1609C6.86255 20.9448 6.22946 20.3115 6.01317 19.5086C5.62705 18.0573 5.62705 14.9999 5.62705 14.9999C5.62705 14.9999 5.62705 11.9581 6.01317 10.4912C6.22924 9.68826 6.87788 9.03961 7.66547 8.82355C9.13237 8.43743 15 8.43743 15 8.43743C15 8.43743 20.8676 8.43743 22.3345 8.83889C23.1374 9.05495 23.7705 9.68826 23.9868 10.4912C24.3882 11.9581 24.3727 15.0152 24.3727 15.0152Z" fill="#C5AC2D"/>
</svg>
